<svg version="1.2" xmlns="http://www.w3.org/2000/svg" viewBox="0 0 1100 830" width="1100" height="830">
	<title>skyline_frasier-svg</title>
	<style>
		.s0 { fill: none;stroke: #c0c0c0;stroke-width: 5 } 
	</style>
	<path id="Ebene 1" class="s0" d="m42.5 794.8v-276.3h70.1v276.3h18.6v-100.9h42.6v101h18.8v-387.2l20.3-20.3h34.4l17.2 20.1v339.7h19.5v-228.7l104.6 0.1v134.4l19.9-0.1v-274.7h89.9v371.8h21v-283.4l49.5-47 47.1 46.6v100.1h39.4l16.4-96.8c0 0 7.5-72.9 7.5-95.4 0-71-17.9-111.5-17.9-111.5l-36.8-7.1-6.4-15.5-26.9-5.1 23.5-7 6.8-9.5 63.8-19.9-2-16.7 12.7-4.1 2-48.7 3.6 48.7 11 3.6-1.3 17.6 66.1 20.9 7 8.4 22 6.7-26.6 5.1-7.8 14.2-38.5 8.4c0 0-19.4 44.5-17.9 111.5 1.4 58.9 7.1 95.4 7.1 95.4h47.8v38.1h140v189h18.4v-277.7l7.4-4.5 10.8-31.9 7-4.3 6.5-35.6 5.1-5.8 2.4-31.5 13.5-6.9 4.8-36.5 4.6 36.2 9.5 6.3 5.4 32.1 4.8 5 7.1 35.7 6.1 5.4 9.3 30.8 6.9 5.5v377.4h16.8v-211.9h14.3 1116.4v746.4h-2860.8v-537.7l673.4 1.4 25.3 0.3z"/>
</svg>